<svg width="295" height="259" viewBox="0 0 295 259" fill="none" xmlns="http://www.w3.org/2000/svg">
<rect x="36" y="7" width="224" height="245" rx="35" fill="#E32E37"/>
<rect x="155" y="189" width="21" height="21" fill="white"/>
<rect x="155" y="168" width="21" height="21" fill="white"/>
<rect x="155" y="147" width="21" height="21" fill="white"/>
<rect x="155" y="126" width="21" height="21" fill="white"/>
<rect x="176" y="189" width="21" height="21" fill="white"/>
<rect x="197" y="189" width="21" height="21" fill="white"/>
<rect x="176" y="168" width="21" height="21" fill="white"/>
<rect x="176" y="147" width="21" height="21" fill="white"/>
<rect x="176" y="126" width="21" height="21" fill="white"/>
<rect x="197" y="126" width="21" height="21" fill="white"/>
<rect x="218" y="189" width="21" height="21" fill="white"/>
<rect x="218" y="168" width="21" height="21" fill="white"/>
<rect x="218" y="147" width="21" height="21" fill="white"/>
<rect x="218" y="126" width="21" height="21" fill="white"/>
<rect x="57.7001" y="147" width="21" height="21" fill="white"/>
<rect x="99.7001" y="189" width="21" height="21" fill="white"/>
<rect x="99.7001" y="168" width="21" height="21" fill="white"/>
<rect x="78.7001" y="168" width="21" height="21" fill="white"/>
<rect x="78.7001" y="189" width="21" height="21" fill="white"/>
<rect x="78.7001" y="210" width="21" height="21" fill="white"/>
<rect x="99.7001" y="210" width="21" height="21" fill="white"/>
<rect x="120.7" y="210" width="21" height="21" fill="white"/>
<rect x="78.7001" y="126" width="21" height="21" fill="white"/>
<rect x="78.7001" y="147" width="21" height="21" fill="white"/>
<rect x="99.7001" y="147" width="21" height="21" fill="white"/>
<rect x="99.7001" y="126" width="21" height="21" fill="white"/>
<rect x="120.7" y="189" width="21" height="21" fill="white"/>
<rect x="120.7" y="147" width="21" height="21" fill="white"/>
<rect x="155" y="91" width="21" height="21" fill="white"/>
<rect x="155" y="70" width="21" height="21" fill="white"/>
<rect x="155" y="49" width="21" height="21" fill="white"/>
<rect x="155" y="28" width="21" height="21" fill="white"/>
<rect x="176" y="91" width="21" height="21" fill="white"/>
<rect x="197" y="91" width="21" height="21" fill="white"/>
<rect x="176" y="70" width="21" height="21" fill="white"/>
<rect x="176" y="49" width="21" height="21" fill="white"/>
<rect x="176" y="28" width="21" height="21" fill="white"/>
<rect x="197" y="28" width="21" height="21" fill="white"/>
<rect x="218" y="91" width="21" height="21" fill="white"/>
<rect x="218" y="70" width="21" height="21" fill="white"/>
<rect x="218" y="49" width="21" height="21" fill="white"/>
<rect x="218" y="28" width="21" height="21" fill="white"/>
<rect x="57" y="91" width="21" height="21" fill="white"/>
<rect x="57" y="70" width="21" height="21" fill="white"/>
<rect x="57" y="49" width="21" height="21" fill="white"/>
<rect x="57" y="28" width="21" height="21" fill="white"/>
<rect x="78" y="91" width="21" height="21" fill="white"/>
<rect x="78" y="70" width="21" height="21" fill="white"/>
<rect x="78" y="49" width="21" height="21" fill="white"/>
<rect x="78" y="28" width="21" height="21" fill="white"/>
<rect x="99" y="28" width="21" height="21" fill="white"/>
<rect x="120" y="91" width="21" height="21" fill="white"/>
<rect x="120" y="70" width="21" height="21" fill="white"/>
<rect x="120" y="49" width="21" height="21" fill="white"/>
<rect x="120" y="28" width="21" height="21" fill="white"/>
</svg>
